<svg width="24" height="24" viewBox="0 0 24 24" fill="none" xmlns="http://www.w3.org/2000/svg">
<path fill-rule="evenodd" clip-rule="evenodd" d="M0 0H24V7.89994L23.9955 7.88992L23.9907 7.8793L23.9859 7.86879L23.9758 7.84788L23.9653 7.82708L23.96 7.81681L23.9546 7.80656L23.9491 7.79635L23.9436 7.78624L23.9322 7.76614L23.9264 7.75621L23.9205 7.74622L23.9145 7.73635L23.9086 7.72659L23.8962 7.70717L23.89 7.69749L23.8773 7.6784L23.8707 7.66891L23.8642 7.65952L23.8576 7.65016L23.851 7.64091L23.8374 7.6225L23.8236 7.60437L23.8166 7.59533L23.8095 7.58642L23.8024 7.57754L23.7951 7.56868L23.7806 7.55119L23.7658 7.53401L23.7583 7.52555L23.7507 7.51699L23.7431 7.50856L23.7278 7.49196L23.72 7.48369L23.7043 7.46741L23.6963 7.4593L23.6884 7.45129L23.6803 7.44331L23.6641 7.42762L23.6559 7.4198L23.6393 7.40442L23.631 7.39684L23.6226 7.38928L23.6057 7.37423L23.5971 7.36683L23.5886 7.35954L23.58 7.35217L23.5712 7.34493L23.5626 7.33777L23.5362 7.31646L23.5273 7.30948L23.5183 7.30254L23.5094 7.29569L23.4912 7.28207L23.4822 7.27536L23.473 7.26857L23.4638 7.26202L23.4546 7.25536L23.4454 7.24881L23.436 7.24229L23.4078 7.22312L23.3983 7.21676L23.3889 7.2105L23.3793 7.20427L23.3698 7.19814L23.3601 7.19193L23.3504 7.18583L23.3407 7.17987L23.3309 7.1738L23.3212 7.16783L23.3015 7.15608L23.2817 7.14446L23.2716 7.13868L23.2517 7.12733L23.2416 7.12168L23.2314 7.11616L23.2212 7.11054L23.2111 7.10503L23.2008 7.09964L23.1906 7.09415L23.1595 7.07808L23.1491 7.07285L23.1385 7.06755L23.1281 7.06233L23.1176 7.05723L23.107 7.05206L23.0858 7.04193L23.0751 7.03689L23.0644 7.03196L23.0536 7.02695L23.0428 7.02204L23.032 7.01727L23.0212 7.01236L23.0102 7.00761L22.9994 7.00273L22.9883 6.99801L22.9774 6.99337L22.9663 6.98865L22.9553 6.98404L22.933 6.97486L22.9217 6.9703L22.9106 6.96582L22.8993 6.96129L22.8766 6.95243L22.8653 6.94811L22.8539 6.94371L22.8425 6.93941L22.8195 6.93088L22.8079 6.92664L22.7963 6.9225L22.7847 6.91826L22.7497 6.90593L22.7379 6.90196L22.7261 6.8979L22.7143 6.89393L22.7024 6.88998L22.6785 6.88213L22.6666 6.87832L22.6545 6.87442L22.6304 6.86684L22.6061 6.85932L22.5817 6.85206L22.5695 6.84833L22.5448 6.84112L22.5324 6.83765L22.52 6.83408L22.5076 6.83061L22.4951 6.82706L22.4825 6.82362L22.4699 6.82021L22.4574 6.81676L22.4448 6.81348L22.4321 6.81007L22.4194 6.80681L22.4066 6.80342L22.3811 6.79691L22.3682 6.79379L22.3553 6.79056L22.3425 6.78744L22.3295 6.78424L22.3165 6.78114L22.2773 6.77194L22.2641 6.76901L22.251 6.76597L22.2378 6.76303L22.2245 6.76002L22.2112 6.75714L22.1979 6.75423L22.1846 6.75135L22.1711 6.7486L22.1577 6.74575L22.1442 6.743L22.1308 6.74015L22.1173 6.73743L22.1036 6.73474L22.0901 6.73201L22.0764 6.72945L22.0627 6.72676L22.049 6.7241L22.0353 6.72153L21.9938 6.71393L21.966 6.70892L21.9519 6.70645L21.9379 6.70407L21.9239 6.70159L21.8816 6.69456L21.8674 6.69224L21.8531 6.68995L21.8389 6.68774L21.8246 6.68544L21.8103 6.68326L21.7959 6.681L21.7815 6.67884L21.738 6.67245L21.7235 6.67045L21.6943 6.66624L21.6649 6.6623L21.6502 6.66036L21.6355 6.65839L21.6206 6.65647L21.6058 6.65453L21.591 6.65261L21.576 6.65083L21.561 6.64894L21.5311 6.64537L21.501 6.64186L21.4555 6.63668L21.425 6.63349L21.4097 6.63181L21.379 6.62868L21.3326 6.62406L21.3171 6.62265L21.3016 6.62113L21.2861 6.61973L21.2704 6.61824L21.2548 6.61686L21.2076 6.6128L21.1918 6.61148L21.1759 6.61025L21.1601 6.60893L21.1442 6.60774L21.1283 6.60644L21.0802 6.60294L21.048 6.60067L21.0319 6.59963L21.0157 6.59852L20.9995 6.59752L20.9833 6.59641L20.9507 6.59445L20.9343 6.5935L20.918 6.59252L20.9015 6.5916L20.8851 6.59065L20.8686 6.58983L20.852 6.58893L20.8355 6.58812L20.8189 6.58722L20.8022 6.58646L20.7856 6.58567L20.7688 6.58493L20.7521 6.58417L20.7354 6.58354L20.7186 6.5828L20.7017 6.5821L20.668 6.58089L20.6511 6.58018L20.6341 6.57961L20.617 6.57906L20.6001 6.57848L20.583 6.57793L20.5658 6.57752L20.5487 6.577L20.5315 6.57658L20.5143 6.57606L20.4798 6.57529L20.4625 6.57493L20.4452 6.57454L20.4278 6.57421L20.4104 6.57385L20.3929 6.57351L20.3755 6.57328L20.358 6.57298L20.3229 6.57258L20.3052 6.57241L20.2876 6.57213L20.27 6.57206L20.2167 6.57162L20.1989 6.57161L20.181 6.57149L20.1632 6.57148L20.152 6.57149L20.1453 6.5715L20.1274 6.57161L20.1094 6.57166L20.0734 6.57195L20.0552 6.57202L20.019 6.57237L20.001 6.57265L19.9828 6.57285L19.9461 6.57331L19.9096 6.57397L19.8729 6.57467L19.836 6.57542L19.799 6.5763L19.7619 6.57724L19.7246 6.57821L19.6873 6.5793L19.6497 6.58046L19.6121 6.58174L19.5744 6.58306L19.4985 6.586L19.4603 6.58756L19.4221 6.58922L19.3837 6.59093L19.3452 6.59278L19.3066 6.59466L19.2679 6.59669L19.229 6.59876L19.19 6.60085L19.151 6.60307L19.1117 6.60535L19.0724 6.60776L19.033 6.61019L18.9537 6.61539L18.9139 6.61814L18.8339 6.62377L18.7938 6.62674L18.7535 6.62974L18.7131 6.63287L18.6726 6.63603L18.632 6.63935L18.5912 6.6427L18.5504 6.64607L18.5095 6.64958L18.4684 6.65311L18.4272 6.65681L18.3859 6.66063L18.3445 6.66438L18.303 6.66826L18.2614 6.67228L18.2196 6.67635L18.1778 6.68055L18.1358 6.68477L18.0937 6.68903L18.0516 6.69342L18.0094 6.69783L17.9669 6.70241L17.9244 6.70701L17.8819 6.71172L17.8392 6.71648L17.7964 6.72138L17.7104 6.73128L17.6672 6.73639L17.6241 6.7416L17.5807 6.74677L17.5373 6.75217L17.4937 6.7576L17.4501 6.76305L17.4064 6.76864L17.3626 6.77426L17.3187 6.78L17.2305 6.79161L17.1862 6.79757L17.142 6.80364L17.0975 6.80976L17.0084 6.82227L16.9796 6.82633C15.4566 4.63674 12.7285 3.51122 10.0691 4.22379C7.41039 4.93619 5.61072 7.27398 5.38578 9.93087L5.35658 9.9427L5.31462 9.95985L5.23098 9.99429L5.18936 10.0115L5.14788 10.0287L5.1065 10.0459L5.02422 10.0804L4.9832 10.0978L4.9424 10.115L4.90163 10.1324L4.86106 10.1498L4.82062 10.1672L4.78029 10.1845L4.74006 10.2019L4.69996 10.2193L4.66 10.2368L4.62021 10.2542L4.58049 10.2717L4.54096 10.2892L4.50155 10.3067L4.46226 10.3242L4.42308 10.3417L4.3841 10.3592L4.34516 10.3767L4.30645 10.3944L4.26784 10.4119L4.22934 10.4295L4.19107 10.4471L4.15283 10.4648L4.11477 10.4823L4.07687 10.5001L4.03905 10.5177L4.00136 10.5353L3.9639 10.5531L3.92655 10.5708L3.8893 10.5884L3.85218 10.6062L3.8152 10.624L3.77839 10.6416L3.74175 10.6595L3.70518 10.6772L3.67467 10.6921L3.66884 10.6949L3.63267 10.7129L3.59657 10.7307L3.5606 10.7485L3.52487 10.7665L3.48925 10.7844L3.45372 10.8022L3.41833 10.8202L3.38315 10.8381L3.3481 10.856L3.27841 10.8919L3.2438 10.9098L3.2093 10.9277L3.17503 10.9457L3.14086 10.9637L3.10683 10.9817L3.073 10.9997L3.03921 11.0178L3.00569 11.0356L2.97223 11.0537L2.93898 11.0718L2.90584 11.0898L2.8729 11.1078L2.83999 11.1258L2.80742 11.1439L2.77492 11.1618L2.75866 11.171L2.74248 11.18L2.7264 11.189L2.71035 11.1981L2.69428 11.2071L2.67823 11.2162L2.66225 11.2251L2.64631 11.2342L2.59878 11.2613L2.58307 11.2704L2.55159 11.2884L2.53588 11.2975L2.52028 11.3066L2.50475 11.3155L2.48914 11.3246L2.47364 11.3337L2.44284 11.3517L2.42747 11.3608L2.41207 11.3699L2.3968 11.379L2.38151 11.388L2.36624 11.3971L2.33591 11.4152L2.29074 11.4424L2.27578 11.4514L2.26085 11.4605L2.2459 11.4695L2.23097 11.4786L2.21615 11.4877L2.15727 11.524L2.12804 11.5421L2.11355 11.5512L2.09897 11.5603L2.08456 11.5693L2.07007 11.5784L2.05569 11.5875L2.04142 11.5966L2.02704 11.6057L2.01276 11.6147L1.99862 11.6239L1.98434 11.6329L1.97027 11.6419L1.95613 11.6511L1.92805 11.6693L1.88624 11.6965L1.8724 11.7056L1.8586 11.7147L1.84477 11.7238L1.83106 11.7329L1.81734 11.7419L1.77654 11.7692L1.74956 11.7874L1.73609 11.7965L1.7227 11.8056L1.70934 11.8147L1.69595 11.8238L1.66944 11.842L1.62998 11.8693L1.61693 11.8784L1.6039 11.8875L1.59096 11.8966L1.57794 11.9057L1.56512 11.9148L1.55218 11.9239L1.52655 11.9421L1.51386 11.9513L1.50115 11.9604L1.48855 11.9694L1.47597 11.9786L1.46336 11.9877L1.45078 11.9968L1.43831 12.006L1.38883 12.0424L1.37659 12.0516L1.36432 12.0606L1.35219 12.0698L1.34002 12.0788L1.32789 12.088L1.30382 12.1062L1.2919 12.1153L1.28 12.1245L1.26807 12.1336L1.25625 12.1427L1.23266 12.1611L1.22096 12.1702L1.20924 12.1792L1.19769 12.1885L1.17451 12.2067L1.16303 12.2158L1.15157 12.225L1.14022 12.2342L1.12884 12.2432L1.11748 12.2524L1.09499 12.2707L1.08377 12.2799L1.06148 12.2981L1.02844 12.3257L1.0175 12.3347L1.00662 12.344L0.985014 12.3623L0.974237 12.3715L0.963536 12.3806L0.952863 12.3898L0.921155 12.4173L0.900225 12.4357L0.889787 12.4449L0.879426 12.454L0.869092 12.4633L0.838403 12.4909L0.828277 12.5L0.818256 12.5092L0.808158 12.5185L0.798136 12.5276L0.788245 12.5368L0.778251 12.5461L0.768465 12.5553L0.758575 12.5645L0.748817 12.5738L0.739134 12.5829L0.729376 12.5922L0.719694 12.6014L0.691042 12.6291L0.681595 12.6383L0.672176 12.6476L0.662833 12.6568L0.644203 12.6754L0.61657 12.7032L0.607491 12.7125L0.598488 12.7217L0.589408 12.7311L0.580433 12.7404L0.56269 12.7589L0.553846 12.7683L0.545078 12.7776L0.536339 12.7869L0.510431 12.8149L0.501899 12.8242L0.493395 12.8336L0.484863 12.8429L0.468062 12.8617L0.459766 12.871L0.451497 12.8805L0.443305 12.8898L0.426975 12.9087L0.410854 12.9275L0.402897 12.9368L0.394968 12.9463L0.387011 12.9557L0.371361 12.9746L0.363668 12.9841L0.355947 12.9935L0.348253 13.003L0.333074 13.022L0.318103 13.041L0.310645 13.0505L0.295938 13.0696L0.281438 13.0886L0.260083 13.1174L0.253069 13.127L0.246082 13.1366L0.239172 13.1462L0.232289 13.1558L0.225435 13.1656L0.211877 13.1848L0.198584 13.2042L0.192068 13.2139L0.185421 13.2236L0.166187 13.2528L0.15988 13.2625L0.147321 13.2822L0.141145 13.2919L0.135101 13.3018L0.12903 13.3116L0.122986 13.3214L0.117074 13.3313L0.111133 13.3412L0.105221 13.3511L0.099517 13.361L0.0937086 13.3709L0.0880322 13.3809L0.0823277 13.3908L0.0767551 13.4007L0.0713141 13.4108L0.0657415 13.4207L0.0604044 13.4307L0.0549915 13.4409L0.0496544 13.4509L0.0392437 13.471L0.0341424 13.4811L0.0239952 13.5014L0.0190257 13.5115L0.0140839 13.5217L0.00924607 13.532L0 13.5518V0ZM0 14.8545V24H24V9.04283L23.9997 9.04369L23.9878 9.07406L23.9816 9.08929L23.9754 9.10432L23.9722 9.11197L23.969 9.11951L23.9657 9.12695L23.9625 9.13449L23.9592 9.14206L23.9492 9.16446L23.9388 9.18694L23.9354 9.19433L23.9318 9.20186L23.9175 9.23153L23.9138 9.23887L23.9101 9.24632L23.9064 9.25366L23.9026 9.26103L23.8989 9.26847L23.8951 9.27584L23.8912 9.28311L23.8873 9.29051L23.8835 9.29788L23.8756 9.31246L23.8717 9.31986L23.8636 9.33451L23.8595 9.34172L23.8514 9.35637L23.8472 9.36361L23.8431 9.37083L23.8388 9.3781L23.8305 9.39259L23.8219 9.40714L23.8176 9.41431L23.8133 9.42158L23.8089 9.42878L23.8045 9.43608L23.7956 9.45048L23.7912 9.45757L23.7822 9.47202L23.7776 9.47914L23.7731 9.48637L23.7638 9.50067L23.7591 9.50792L23.7545 9.51507L23.7526 9.51792L23.7498 9.52211L23.7448 9.52958L23.7355 9.54354L23.7258 9.55771L23.7063 9.58612L23.6862 9.61442L23.6761 9.6285L23.6658 9.64261L23.6555 9.65674L23.6345 9.68486L23.6239 9.69894L23.6132 9.71295L23.6024 9.72698L23.5805 9.75491L23.5581 9.78294L23.5468 9.79688L23.5354 9.81085L23.524 9.82471L23.5125 9.8386L23.5007 9.85255L23.4889 9.8664L23.4772 9.88034L23.4652 9.89414L23.4532 9.90804L23.4166 9.94959L23.3917 9.9772L23.3791 9.99103L23.3665 10.0049L23.3537 10.0187L23.3279 10.0463L23.3149 10.06L23.3018 10.0738L23.2885 10.0876L23.2752 10.1014L23.2618 10.1151L23.2484 10.1289L23.2348 10.1426L23.2211 10.1564L23.2074 10.1701L23.1936 10.1838L23.1796 10.1976L23.1657 10.2114L23.1374 10.2388L23.1087 10.2663L23.0943 10.2799L23.0797 10.2937L23.0651 10.3074L23.0503 10.3211L23.0356 10.3349L23.0207 10.3485L22.9906 10.376L22.9755 10.3897L22.945 10.4171L22.914 10.4445L22.8984 10.4581L22.8828 10.4719L22.8512 10.4993L22.8352 10.5129L22.8192 10.5267L22.7869 10.5541L22.7707 10.5678L22.7543 10.5814L22.7379 10.5951L22.7047 10.6225L22.688 10.6362L22.6712 10.65L22.6544 10.6636L22.6374 10.6773L22.6204 10.691L22.6032 10.7047L22.586 10.7185L22.5687 10.7321L22.5513 10.7458L22.5163 10.7732L22.4987 10.787L22.4809 10.8006L22.4631 10.8143L22.4453 10.8281L22.4274 10.8417L22.4093 10.8555L22.3912 10.8692L22.3546 10.8966L22.3363 10.9103L22.3178 10.9241L22.2806 10.9514L22.2619 10.9652L22.2431 10.9789L22.2242 10.9926L22.2052 11.0064L22.1862 11.02L22.167 11.0337L22.1479 11.0476L22.1286 11.0612L22.1092 11.0749L22.0897 11.0886L22.0703 11.1024L22.0309 11.1299L22.0111 11.1435L21.9912 11.1573L21.9713 11.171L21.9513 11.1849L21.9312 11.1985L21.9111 11.2122L21.8908 11.226L21.8704 11.2397L21.85 11.2535L21.8295 11.2673L21.8089 11.2809L21.7883 11.2947L21.7675 11.3085L21.7466 11.3222L21.7048 11.3497L21.6838 11.3634L21.6626 11.3771L21.6413 11.391L21.6201 11.4047L21.5987 11.4184L21.5816 11.4294L21.5772 11.4322L21.5556 11.4459L21.534 11.4595L21.5123 11.4732L21.4686 11.5005L21.4245 11.5279L21.4024 11.5415L21.3802 11.5551L21.358 11.5689L21.3356 11.5826L21.3132 11.5962L21.2907 11.6099L21.268 11.6235L21.1998 11.6645L21.1769 11.6782L21.1539 11.6918L21.1309 11.7056L21.1078 11.7192L21.0845 11.7329L21.0613 11.7465L21.038 11.7602L21.0145 11.7738L20.991 11.7875L20.9438 11.8148L20.9201 11.8284L20.8963 11.8421L20.8724 11.8558L20.8485 11.8694L20.8244 11.883L20.8004 11.8967L20.7762 11.9103L20.7519 11.924L20.7276 11.9377L20.7032 11.9512L20.6788 11.9649L20.6542 11.9785L20.6296 11.9922L20.6049 12.0059L20.5801 12.0194L20.5554 12.033L20.5304 12.0466L20.5055 12.0603L20.4805 12.0739L20.4553 12.0876L20.4301 12.1011L20.4049 12.1148L20.3795 12.1284L20.3542 12.142L20.3031 12.1692L20.2518 12.1963L20.2261 12.2099L20.1743 12.2372L20.1483 12.2507L20.1223 12.2644L20.0962 12.2779L20.07 12.2915L20.0437 12.305L20.0174 12.3186L19.9646 12.3457L19.9115 12.3728L19.8848 12.3863L19.8313 12.4134L19.8044 12.4269L19.7774 12.4405L19.7504 12.454L19.6961 12.481L19.6417 12.508L19.6143 12.5215L19.5869 12.5351L19.5594 12.5485L19.5319 12.562L19.5042 12.5755L19.4488 12.6024L19.4209 12.6159L19.3931 12.6293L19.3651 12.6428L19.3091 12.6697L19.2809 12.6831L19.2527 12.6966L19.2244 12.7099L19.1961 12.7233L19.1391 12.7502L19.112 12.7629L19.1106 12.7636L19.0532 12.7901L19.0244 12.8033L18.9955 12.8166L18.9086 12.8563L18.8794 12.8694L18.8503 12.8827L18.8112 12.9003L21.4342 16.047L20.3602 16.9423L17.4662 13.4707L17.442 13.4804L17.41 13.4931L17.3779 13.5058L17.3458 13.5187L17.3137 13.5313L17.2815 13.544L17.2492 13.5567L17.2169 13.5695L17.1844 13.5821L17.1521 13.5947L17.1196 13.6074L17.0544 13.6327L17.0217 13.6453L16.989 13.6579L16.8906 13.6957L16.8247 13.7207L16.7586 13.7457L16.7254 13.7583L16.6922 13.7707L16.6589 13.7832L16.6256 13.7956L16.5923 13.8081L16.5597 13.8202L16.5589 13.8205L16.5254 13.8327L16.4918 13.8449L16.4581 13.8571L16.4245 13.8692L16.3908 13.8814L16.357 13.8935L16.3231 13.9056L16.2892 13.9178L16.2553 13.9298L16.2213 13.9419L16.1873 13.954L16.1531 13.9661L16.119 13.9781L16.0848 13.9901L16.0506 14.0021L15.982 14.0261L15.8787 14.0618L15.8096 14.0856L15.7055 14.1212L15.6707 14.133L15.6359 14.1449L15.601 14.1567L15.566 14.1684L15.5311 14.1802L15.426 14.2154L15.3556 14.2387L15.3203 14.2504L15.285 14.2619L15.2497 14.2736L15.1789 14.2968L15.1434 14.3083L15.0723 14.3314L15.0366 14.343L15.0011 14.3544L14.9653 14.366L14.9296 14.3773L14.8938 14.3888L14.8579 14.4002L14.8221 14.4116L14.7862 14.423L14.7501 14.4344L14.7142 14.4457L14.6781 14.4571L14.642 14.4684L14.5334 14.5022L14.4972 14.5135L14.4245 14.5358L14.3881 14.547L14.3517 14.5581L14.3151 14.5693L14.2787 14.5804L14.2421 14.5915L14.0954 14.6357L14.0586 14.6467L14.0361 14.6534L14.0217 14.6576L13.9848 14.6682L13.9108 14.6896L13.8738 14.7002L13.8367 14.7109L13.7995 14.7214L13.7624 14.7321L13.7253 14.7426L13.6507 14.7637L13.6343 14.7683L14.9287 19.5991L13.578 19.961L12.2823 15.1254L12.2539 15.1324L12.1786 15.1508L12.141 15.1598L12.1034 15.169L12.0659 15.1781L12.0283 15.187L11.9908 15.1961L11.9158 15.2139L11.7662 15.2491L11.7289 15.2578L11.6916 15.2665L11.6543 15.2751L11.6171 15.2837L11.5426 15.3008L11.5054 15.3093L11.4682 15.3177L11.4311 15.3262L11.394 15.3346L11.3569 15.3429L11.32 15.3511L11.2829 15.3595L11.2459 15.3676L11.2136 15.3748L11.209 15.3758L11.1719 15.3837L11.1351 15.3917L11.0981 15.3996L11.0244 15.4154L10.8772 15.4463L10.8405 15.454L10.8039 15.4615L10.7672 15.4691L10.7307 15.4766L10.694 15.4842L10.6575 15.4916L10.6209 15.499L10.5845 15.5064L10.548 15.5137L10.5116 15.521L10.4751 15.5284L10.4389 15.5355L10.4025 15.5427L10.3299 15.557L10.2213 15.5781L10.1852 15.585L10.1491 15.592L10.1131 15.5989L10.0769 15.6057L10.041 15.6125L9.93318 15.6327L9.89731 15.6393L9.86157 15.646L9.8257 15.6526L9.79001 15.659L9.75425 15.6656L9.71856 15.6721L9.68297 15.6785L9.64729 15.6849L9.61178 15.6912L9.57616 15.6975L9.54065 15.7038L9.50525 15.7101L9.46982 15.7162L9.43441 15.7225L9.39905 15.7285L9.36372 15.7346L9.3285 15.7407L9.25799 15.7527L9.22281 15.7586L9.18777 15.7645L9.15259 15.7704L9.11762 15.7762L9.08255 15.782L9.04766 15.7877L9.01266 15.7934L8.97777 15.7991L8.94298 15.8047L8.90816 15.8103L8.87337 15.8159L8.83866 15.8214L8.80392 15.8268L8.76931 15.8323L8.73467 15.8377L8.6656 15.8484L8.63104 15.8537L8.59658 15.8589L8.56226 15.8642L8.55478 15.8653L7.78559 20.3117L6.40773 20.0733L7.1034 16.0519L7.09197 16.0531L7.05957 16.0565L7.0273 16.0599L6.995 16.0632L6.96278 16.0664L6.8986 16.0729L6.86648 16.076L6.83446 16.0792L6.80256 16.0823L6.77062 16.0852L6.73881 16.0883L6.70698 16.0913L6.67525 16.0942L6.64349 16.097L6.61186 16.0999L6.54876 16.1055L6.48587 16.111L6.42313 16.1162L6.3606 16.1214L6.32943 16.1239L6.26726 16.1288L6.2053 16.1336L6.17439 16.1359L6.14361 16.1382L6.11281 16.1405L6.08211 16.1427L6.05139 16.1448L6.02079 16.147L5.99017 16.149L5.95965 16.1511L5.89882 16.1551L5.86848 16.157L5.83825 16.1589L5.80804 16.1609L5.77778 16.1626L5.74775 16.1644L5.71759 16.1662L5.68767 16.168L5.65772 16.1696L5.62787 16.1713L5.598 16.1728L5.56825 16.1745L5.53848 16.176L5.50892 16.1774L5.47925 16.1789L5.44977 16.1803L5.42031 16.1817L5.39082 16.183L5.36143 16.1843L5.33216 16.1856L5.30295 16.1867L5.27378 16.188L5.21558 16.1902L5.18658 16.1913L5.15756 16.1923L5.12877 16.1933L5.07114 16.1952L5.04243 16.1961L5.01382 16.197L4.92823 16.1992L4.87158 16.2005L4.84323 16.2011L4.81511 16.2018L4.75882 16.2028L4.73086 16.2032L4.70282 16.2037L4.6471 16.2044L4.61934 16.2047L4.59169 16.2049L4.56401 16.2051L4.53646 16.2054L4.50888 16.2055L4.48152 16.2056L4.45404 16.2057L4.42675 16.2057L4.39949 16.2058L4.3723 16.2057L4.31813 16.2055L4.29112 16.2053L4.26414 16.2052L4.23734 16.2049L4.22293 16.2048L4.21054 16.2046L4.18371 16.2042L4.13047 16.2034L4.10395 16.2029L4.07741 16.2023L4.0511 16.2018L3.99842 16.2005L3.97219 16.1999L3.94603 16.1991L3.92001 16.1984L3.89396 16.1976L3.86811 16.1967L3.84216 16.1959L3.81642 16.195L3.79065 16.194L3.76501 16.193L3.73935 16.192L3.68843 16.1898L3.66295 16.1887L3.6377 16.1875L3.61242 16.1863L3.56207 16.1837L3.53698 16.1823L3.51201 16.181L3.48712 16.1795L3.41276 16.1751L3.38818 16.1735L3.36358 16.1719L3.33908 16.1702L3.31468 16.1685L3.26609 16.165L3.24187 16.1632L3.21768 16.1614L3.16966 16.1576L3.14573 16.1555L3.12182 16.1536L3.05064 16.1473L3.0036 16.1429L2.98016 16.1407L2.95685 16.1384L2.93351 16.1361L2.91038 16.1337L2.88722 16.1313L2.86409 16.1289L2.81819 16.1238L2.79534 16.1212L2.74985 16.1161L2.72719 16.1133L2.70462 16.1106L2.68216 16.1078L2.63745 16.1022L2.61517 16.0993L2.57082 16.0933L2.54875 16.0903L2.52678 16.0873L2.50489 16.0842L2.48313 16.0811L2.46134 16.0779L2.43966 16.0747L2.41805 16.0713L2.39657 16.0681L2.37507 16.0647L2.35367 16.0613L2.33237 16.0579L2.28999 16.051L2.22695 16.0401L2.20615 16.0365L2.18532 16.0327L2.16459 16.0289L2.14399 16.0252L2.12344 16.0212L2.10292 16.0174L2.08261 16.0134L2.04193 16.0054L2.0218 16.0013L2.00163 15.9972L1.98161 15.9931L1.96165 15.9888L1.92195 15.9803L1.90229 15.9759L1.88264 15.9716L1.84351 15.9627L1.82413 15.9581L1.80477 15.9536L1.78549 15.949L1.74713 15.9396L1.72803 15.9349L1.70917 15.9301L1.69027 15.9253L1.67135 15.9203L1.65267 15.9154L1.63395 15.9104L1.61534 15.9054L1.59684 15.9003L1.57844 15.8952L1.56001 15.89L1.52356 15.8795L1.50544 15.8742L1.4873 15.8688L1.45142 15.858L1.43356 15.8524L1.41583 15.8469L1.39818 15.8413L1.3806 15.8355L1.36305 15.8299L1.34557 15.8241L1.3282 15.8183L1.31091 15.8123L1.29364 15.8065L1.27655 15.8005L1.25944 15.7944L1.24246 15.7883L1.20864 15.776L1.17519 15.7634L1.15857 15.757L1.14205 15.7507L1.10916 15.7377L1.07664 15.7243L1.06048 15.7176L1.04442 15.7109L1.02834 15.7041L1.01244 15.6971L0.996564 15.6902L0.980765 15.6832L0.96507 15.6762L0.949451 15.669L0.933936 15.6618L0.918393 15.6545L0.902981 15.6472L0.887722 15.6397L0.872754 15.6325L0.864913 15.6286L0.857336 15.6248L0.84973 15.621L0.842153 15.6172L0.834679 15.6134L0.827177 15.6095L0.819704 15.6057L0.812202 15.6019L0.775214 15.5823L0.767892 15.5782L0.760598 15.5743L0.745955 15.5662L0.738765 15.5622L0.731548 15.5581L0.724226 15.5541L0.717085 15.5498L0.709867 15.5458L0.695507 15.5375L0.68847 15.5332L0.681356 15.5291L0.674214 15.5249L0.660138 15.5164L0.653073 15.5121L0.646139 15.5078L0.639073 15.5035L0.632139 15.4992L0.625178 15.4948L0.61832 15.4904L0.611358 15.4861L0.597643 15.4773L0.590757 15.4728L0.584003 15.4684L0.577118 15.4638L0.563554 15.4548L0.550198 15.4457L0.543389 15.441L0.536815 15.4365L0.530109 15.4318L0.523507 15.4271L0.516802 15.4224L0.510304 15.4177L0.506081 15.4148L0.503702 15.413L0.497204 15.4083L0.477627 15.3938L0.458362 15.3793L0.451912 15.3743L0.445594 15.3695L0.432903 15.3595L0.426661 15.3545L0.420315 15.3495L0.414045 15.3444L0.407907 15.3394L0.401637 15.3343L0.38314 15.3188L0.377078 15.3137L0.370885 15.3084L0.364927 15.3032L0.358837 15.298L0.352851 15.2927L0.346761 15.2874L0.340851 15.2819L0.334865 15.2766L0.328956 15.2712L0.323074 15.2659L0.317164 15.2605L0.311358 15.255L0.305524 15.2494L0.299718 15.244L0.293885 15.2384L0.288155 15.2328L0.282453 15.2273L0.276695 15.2216L0.265443 15.2104L0.25979 15.2047L0.25424 15.1989L0.248586 15.1932L0.24314 15.1874L0.23759 15.1817L0.232116 15.1758L0.22667 15.17L0.221196 15.1641L0.205086 15.1464L0.199793 15.1403L0.194527 15.1344L0.189233 15.1284L0.178853 15.1162L0.173635 15.1101L0.168549 15.104L0.158321 15.0915L0.143291 15.0729L0.138357 15.0665L0.133451 15.0602L0.128517 15.0539L0.118857 15.0411L0.113999 15.0346L0.109273 15.0282L0.104519 15.0217L0.0905685 15.002L0.0860223 14.9954L0.0814483 14.9888L0.0769021 14.9822L0.0679619 14.9688L0.0592294 14.9553L0.0548352 14.9485L0.0505729 14.9417L0.0419925 14.928L0.0378341 14.9212L0.0337239 14.9141L0.0295375 14.9072L0.0254551 14.9003L0.0214489 14.8933L0.0174704 14.8863L0.0134641 14.8793L0.00565914 14.8651L0 14.8545ZM5.29943 10.8062L5.36772 10.774C5.38806 11.2637 5.46228 11.7594 5.59463 12.2533L5.77558 12.9286L5.79226 12.9242L5.79259 12.9267L6.48586 12.8361C8.2262 12.6088 10.1842 12.218 12.0646 11.7142C14.0071 11.1937 15.8756 10.5629 17.489 9.88758L18.1338 9.61724L18.1397 9.61565L17.9588 8.94032C17.827 8.44853 17.6445 7.98404 17.4186 7.55137L17.4428 7.54952L17.5286 7.54302L17.6138 7.53689L17.6563 7.53385L17.6986 7.53097L17.7409 7.52812L17.783 7.5254L17.825 7.52271L17.8669 7.52008L17.9086 7.51758L17.9503 7.5151L17.9918 7.51265L18.0332 7.51037L18.0745 7.50811L18.1156 7.50588L18.1567 7.50378L18.1976 7.50173L18.2384 7.49982L18.2791 7.49793L18.3197 7.49608L18.3601 7.49428L18.4004 7.49261L18.4406 7.49096L18.4806 7.48948L18.5205 7.48803L18.5603 7.4866L18.6 7.48533L18.6395 7.48399L18.6789 7.48288L18.7182 7.48173L18.7573 7.4807L18.7964 7.47971L18.8352 7.47887L18.874 7.47806L18.9126 7.47728L18.9511 7.47666L18.9895 7.47597L19.0276 7.47543L19.0657 7.47502L19.1037 7.47464L19.1415 7.47432L19.1791 7.47403L19.2166 7.47389L19.254 7.47378L19.2913 7.47371L19.3284 7.47379L19.3654 7.47389L19.4022 7.47406L19.4389 7.47425L19.4754 7.4746L19.5118 7.47498L19.5481 7.47549L19.5842 7.47595L19.6201 7.47658L19.6559 7.47723L19.6917 7.47801L19.7272 7.47884L19.7625 7.47974L19.7977 7.48066L19.8329 7.48171L19.8678 7.48282L19.9025 7.48398L19.9373 7.48512L19.9544 7.48577L19.9717 7.4865L19.9888 7.48715L20.006 7.48788L20.0231 7.48853L20.0571 7.4901L20.0741 7.49078L20.1249 7.49321L20.1311 7.49355L20.1417 7.49405L20.1585 7.49478L20.1752 7.49565L20.192 7.49649L20.2086 7.49728L20.2253 7.49815L20.2419 7.49904L20.2915 7.50181L20.3243 7.50371L20.3407 7.50477L20.3733 7.50672L20.3895 7.50783L20.4057 7.50884L20.4219 7.50995L20.438 7.51098L20.454 7.51215L20.4701 7.51328L20.4861 7.51435L20.5339 7.51793L20.5813 7.52159L20.597 7.52284L20.6126 7.52412L20.6283 7.52547L20.6438 7.52678L20.6594 7.52805L20.6749 7.52946L20.6903 7.53079L20.7058 7.5322L20.7211 7.53356L20.7365 7.535L20.7518 7.53649L20.7671 7.53796L20.7823 7.53934L20.7975 7.54084L20.8277 7.54388L20.8577 7.54697L20.9024 7.5517L20.9172 7.55341L20.932 7.55501L20.9467 7.55664L20.9614 7.55838L20.9761 7.56001L20.9907 7.56167L21.0052 7.56346L21.0198 7.56522L21.0342 7.56694L21.0487 7.56873L21.0631 7.57044L21.106 7.57598L21.1202 7.57786L21.1343 7.57966L21.1485 7.58153L21.1624 7.58346L21.1765 7.58536L21.1905 7.5873L21.2044 7.58925L21.2183 7.59131L21.2322 7.59327L21.246 7.59526L21.2597 7.59727L21.2735 7.59926L21.2871 7.6014L21.3008 7.60342L21.3142 7.60549L21.3278 7.60763L21.3413 7.6097L21.3547 7.6119L21.3681 7.614L21.3815 7.6162L21.3947 7.61833L21.408 7.62056L21.4212 7.62271L21.4344 7.62497L21.4474 7.62725L21.4605 7.62943L21.4865 7.63406L21.5122 7.63874L21.5251 7.64097L21.5378 7.64334L21.5758 7.65053L21.601 7.65538L21.6134 7.65783L21.6258 7.66031L21.6383 7.66276L21.6505 7.66527L21.6629 7.66775L21.675 7.67028L21.6873 7.67279L21.6994 7.67533L21.7235 7.68045L21.7355 7.68315L21.7474 7.68574L21.7829 7.69359L21.7947 7.69624L21.8063 7.69902L21.8296 7.70437L21.8411 7.70707L21.8526 7.7099L21.8754 7.71536L21.8867 7.71812L21.8979 7.72091L21.9092 7.7238L21.9425 7.73224L21.9535 7.73518L21.9862 7.74379L21.9971 7.74679L22.0292 7.75557L22.0397 7.75852L22.0502 7.7615L22.0607 7.76459L22.0919 7.77361L22.1022 7.77665L22.1225 7.78278L22.1427 7.78896L22.1626 7.7952L22.1823 7.80149L22.1921 7.80467L22.2017 7.80777L22.221 7.81418L22.2306 7.81741L22.2401 7.82053L22.2495 7.82379L22.2589 7.82708L22.2682 7.83026L22.2774 7.83358L22.2867 7.83679L22.2959 7.8401L22.3049 7.84337L22.314 7.84661L22.3229 7.85001L22.3407 7.8566L22.3583 7.86324L22.367 7.86659L22.3842 7.87335L22.4012 7.88016L22.4095 7.88349L22.4179 7.88692L22.4262 7.89038L22.4344 7.89374L22.4426 7.89713L22.4506 7.90064L22.4667 7.90747L22.4747 7.91091L22.4903 7.91785L22.5058 7.92484L22.5134 7.92837L22.5209 7.93181L22.5284 7.93537L22.5359 7.93882L22.5432 7.94232L22.5506 7.9458L22.5578 7.94933L22.5651 7.95283L22.5863 7.96351L22.5933 7.96699L22.6001 7.97061L22.607 7.97412L22.6205 7.9812L22.6271 7.98477L22.6336 7.98836L22.6401 7.99185L22.6467 7.99545L22.6529 7.999L22.6593 8.00252L22.6779 8.01324L22.684 8.01684L22.7019 8.02742L22.7076 8.031L22.7135 8.03456L22.7191 8.03817L22.7247 8.04167L22.7304 8.04529L22.7359 8.04882L22.7413 8.05238L22.7467 8.05584L22.752 8.05943L22.7573 8.06291L22.7676 8.06994L22.7727 8.07348L22.7776 8.07705L22.7826 8.08052L22.7923 8.0875L22.8017 8.09455L22.8109 8.10144L22.8154 8.10491L22.8199 8.10828L22.8243 8.11178L22.8328 8.11863L22.8369 8.12208L22.8411 8.12543L22.8491 8.13218L22.853 8.13559L22.8569 8.13889L22.8607 8.14232L22.8645 8.14554L22.8719 8.15226L22.879 8.15882L22.8824 8.16202L22.8858 8.16533L22.8891 8.16856L22.8923 8.17171L22.8956 8.17495L22.8987 8.17813L22.9019 8.18128L22.9049 8.1845L22.9079 8.18758L22.9108 8.19071L22.9137 8.19382L22.9164 8.19688L22.9193 8.19991L22.922 8.20297L22.9246 8.20606L22.9297 8.21202L22.9322 8.21503L22.9347 8.21794L22.9417 8.22675L22.9461 8.23246L22.9482 8.23535L22.9503 8.23813L22.9543 8.24375L22.9582 8.24917L22.96 8.2519L22.9618 8.25467L22.9636 8.2573L22.9652 8.25998L22.9669 8.26254L22.9685 8.26522L22.9717 8.27039L22.9731 8.27289L22.9746 8.27551L22.976 8.27801L22.9774 8.28055L22.9813 8.28784L22.9838 8.29275L22.985 8.29511L22.9882 8.30225L22.9893 8.30453L22.9902 8.30684L22.9913 8.30912L22.9922 8.31142L22.9931 8.31376L22.994 8.31596L22.9948 8.31829L22.9973 8.32498L22.998 8.32714L23.0021 8.34262L23.0026 8.34483L23.0038 8.34919L23.0043 8.3514L23.0047 8.35351L23.0052 8.35572L23.0063 8.36045L23.0065 8.36162L23.0067 8.36323L23.0073 8.3663L23.0078 8.3694L23.0082 8.37252L23.0087 8.37572L23.0091 8.37885L23.0096 8.38515L23.01 8.38841L23.0101 8.39159L23.0106 8.39816L23.0108 8.40478L23.0109 8.4082L23.0108 8.41167L23.0109 8.41511L23.0108 8.41858L23.0108 8.42216L23.0106 8.42576L23.0104 8.42939L23.0099 8.43686L23.0096 8.44073L23.0088 8.44852L23.0083 8.45254L23.0079 8.45667L23.0073 8.46073L23.0067 8.46502L23.0063 8.46711L23.006 8.46931L23.0057 8.4714L23.0049 8.47585L23.0046 8.47805L23.0041 8.4803L23.0037 8.48252L23.0033 8.48485L23.0028 8.4871L23.0018 8.49182L23.0013 8.49407L23.0008 8.49642L23.0003 8.49891L22.9998 8.50127L22.9992 8.50365L22.9985 8.50617L22.9974 8.51115L22.9967 8.51356L22.9961 8.51618L22.9954 8.51869L22.9947 8.52124L22.994 8.52386L22.9933 8.5264L22.9918 8.5317L22.9909 8.53437L22.9902 8.53702L22.9894 8.5398L22.9885 8.54247L22.9876 8.54528L22.9868 8.54796L22.984 8.55638L22.983 8.55932L22.9821 8.56212L22.9811 8.56496L22.9801 8.5679L22.979 8.57087L22.978 8.5738L22.9758 8.57974L22.9746 8.58273L22.9735 8.5857L22.9712 8.5919L22.9699 8.59492L22.9687 8.59802L22.9661 8.60427L22.9648 8.60753L22.9635 8.61065L22.9621 8.61381L22.9608 8.61707L22.9593 8.62035L22.958 8.62361L22.955 8.63018L22.9535 8.6335L22.952 8.63678L22.9505 8.6401L22.9489 8.64351L22.9473 8.64696L22.9457 8.65027L22.9441 8.65372L22.9423 8.65719L22.9407 8.66064L22.939 8.66411L22.9372 8.66769L22.9355 8.67116L22.9337 8.67466L22.93 8.68187L22.9282 8.68538L22.9224 8.69627L22.9204 8.69994L22.9185 8.70367L22.9165 8.70733L22.9143 8.71102L22.9123 8.71479L22.9102 8.71848L22.9081 8.72227L22.9059 8.72609L22.9038 8.72988L22.8994 8.73752L22.8925 8.74907L22.8902 8.75302L22.8878 8.75689L22.8854 8.76087L22.883 8.76475L22.8806 8.76873L22.8781 8.77274L22.8756 8.77664L22.8731 8.78065L22.8653 8.79276L22.8627 8.7969L22.8573 8.80502L22.8547 8.80919L22.8519 8.81328L22.8491 8.81748L22.8463 8.82157L22.8435 8.82576L22.8406 8.82988L22.832 8.84255L22.826 8.85105L22.8229 8.85533L22.82 8.85958L22.8138 8.86814L22.8106 8.87255L22.8093 8.87435L22.8075 8.87683L22.8045 8.88087L22.7979 8.88998L22.7914 8.89886L22.7848 8.90763L22.7781 8.91657L22.7713 8.92553L22.7642 8.93454L22.7572 8.94366L22.75 8.95271L22.7354 8.97111L22.7278 8.98037L22.7202 8.98966L22.7125 8.99908L22.7046 9.00842L22.6967 9.01789L22.6886 9.02729L22.6721 9.04641L22.6552 9.06563L22.6466 9.0753L22.6378 9.0851L22.629 9.09483L22.62 9.10458L22.611 9.11446L22.6018 9.12427L22.5925 9.13421L22.5832 9.14418L22.5736 9.1542L22.564 9.16412L22.5445 9.18428L22.5245 9.20455L22.5143 9.21474L22.5041 9.22496L22.4937 9.23521L22.4727 9.25576L22.462 9.26608L22.4511 9.27644L22.4403 9.28693L22.4292 9.29735L22.4181 9.30779L22.3955 9.32878L22.384 9.3393L22.3725 9.34986L22.3608 9.36044L22.3491 9.37105L22.3252 9.39237L22.3131 9.40306L22.301 9.41378L22.2887 9.42453L22.2638 9.44614L22.2512 9.45697L22.2385 9.46783L22.2257 9.47861L22.2128 9.48952L22.1998 9.50047L22.1867 9.51133L22.1734 9.52236L22.1601 9.53328L22.1467 9.54433L22.1332 9.55528L22.1196 9.56629L22.1059 9.57743L22.092 9.58848L22.078 9.59958L22.0499 9.62181L22.0357 9.63298L22.0214 9.64405L21.9924 9.6665L21.9777 9.67768L21.963 9.68897L21.9482 9.70018L21.9332 9.71154L21.9182 9.72281L21.9031 9.7341L21.8726 9.75674L21.8572 9.76811L21.8416 9.77951L21.8261 9.79081L21.8103 9.80227L21.7945 9.81362L21.7786 9.82514L21.7626 9.83655L21.7465 9.84799L21.7303 9.85945L21.714 9.87094L21.6812 9.89399L21.6646 9.90546L21.648 9.91704L21.6312 9.92854L21.5973 9.95165L21.5803 9.96334L21.5632 9.97482L21.5287 9.9981L21.5112 10.0097L21.4937 10.0214L21.4762 10.033L21.4584 10.0447L21.4228 10.068L21.3868 10.0915L21.3687 10.1031L21.3504 10.1149L21.3321 10.1266L21.2952 10.1501L21.2578 10.1737L21.239 10.1854L21.2202 10.1973L21.2013 10.209L21.163 10.2326L21.1438 10.2444L21.1245 10.2563L21.1051 10.2681L21.0856 10.28L21.0463 10.3036L21.0266 10.3155L20.9868 10.3393L20.9668 10.3511L20.9467 10.3631L20.9306 10.3725L20.9266 10.3749L20.886 10.3989L20.8656 10.4109L20.8451 10.4229L20.8246 10.4349L20.7831 10.4589L20.7623 10.4709L20.7414 10.4829L20.7204 10.495L20.6994 10.507L20.6782 10.519L20.657 10.5311L20.6357 10.5431L20.5927 10.5673L20.5712 10.5793L20.5278 10.6034L20.506 10.6155L20.484 10.6276L20.462 10.6396L20.4399 10.6517L20.4178 10.6638L20.3733 10.688L20.3509 10.7001L20.3284 10.7121L20.3058 10.7242L20.2832 10.7364L20.2605 10.7485L20.2377 10.7605L20.1919 10.7848L20.1688 10.7969L20.1225 10.8211L20.0993 10.8332L20.0759 10.8453L20.0524 10.8575L20.0289 10.8696L20.0053 10.8817L19.958 10.9059L19.9341 10.918L19.9102 10.9302L19.8863 10.9423L19.8623 10.9544L19.8381 10.9666L19.8139 10.9786L19.7896 10.9908L19.7409 11.015L19.7164 11.0271L19.6918 11.0392L19.6671 11.0514L19.6424 11.0635L19.6175 11.0756L19.5677 11.0998L19.5427 11.1119L19.5176 11.124L19.4924 11.1362L19.4672 11.1482L19.4418 11.1604L19.4164 11.1724L19.391 11.1845L19.3654 11.1967L19.3398 11.2088L19.314 11.2208L19.2883 11.2329L19.2625 11.245L19.2366 11.2571L19.2106 11.2691L19.1846 11.2812L19.1584 11.2933L19.1323 11.3054L19.106 11.3174L19.0268 11.3537L18.9736 11.3777L18.9201 11.4018L18.8933 11.4139L18.8665 11.4259L18.8395 11.4379L18.7854 11.462L18.7582 11.474L18.7309 11.4861L18.7036 11.4981L18.6762 11.5101L18.6488 11.522L18.6213 11.534L18.5937 11.546L18.5674 11.5574L18.566 11.558L18.5384 11.5701L18.5107 11.5822L18.455 11.6064L18.3991 11.6305L18.3711 11.6426L18.3429 11.6547L18.3147 11.6667L18.2865 11.6789L18.2582 11.6909L18.2298 11.703L18.2014 11.7149L18.1729 11.727L18.1156 11.7511L18.0869 11.7631L18.0581 11.775L18.0293 11.7871L18.0004 11.7991L17.9714 11.8111L17.9424 11.8231L17.8842 11.8469L17.8549 11.8589L17.8257 11.8708L17.7963 11.8828L17.7669 11.8947L17.7374 11.9066L17.7079 11.9185L17.6486 11.9424L17.619 11.9543L17.5892 11.9662L17.5593 11.9781L17.5294 11.9899L17.4995 12.0018L17.4695 12.0136L17.4394 12.0255L17.4092 12.0372L17.379 12.0491L17.3487 12.0609L17.288 12.0845L17.2575 12.0962L17.2271 12.1081L17.1966 12.1198L17.1659 12.1315L17.1353 12.1432L17.1045 12.1549L17.0738 12.1667L17.0428 12.1784L17.012 12.1901L16.9809 12.2018L16.95 12.2135L16.9189 12.2252L16.8877 12.2367L16.8566 12.2484L16.794 12.2717L16.7312 12.2949L16.6997 12.3065L16.6682 12.3181L16.6366 12.3296L16.6049 12.3411L16.5733 12.3527L16.5415 12.3643L16.5096 12.3758L16.4777 12.3872L16.4459 12.3988L16.3819 12.4217L16.3497 12.4331L16.3176 12.4446L16.2855 12.456L16.2532 12.4674L16.2209 12.4789L16.1562 12.5016L16.1237 12.513L16.092 12.524L16.0912 12.5243L16.0586 12.5358L16.0261 12.5474L15.9936 12.559L15.9609 12.5704L15.9281 12.5819L15.8955 12.5934L15.8626 12.6049L15.8298 12.6163L15.7969 12.6277L15.7639 12.6392L15.7308 12.6506L15.6978 12.6619L15.6647 12.6734L15.5983 12.696L15.5651 12.7074L15.5317 12.7187L15.4983 12.7301L15.465 12.7414L15.4315 12.7527L15.3644 12.7751L15.2972 12.7976L15.2634 12.8087L15.2297 12.82L15.1959 12.8311L15.162 12.8422L15.1282 12.8534L15.0602 12.8756L15.0261 12.8868L14.9921 12.8978L14.9578 12.9089L14.9237 12.9199L14.8895 12.931L14.8552 12.9419L14.7865 12.9639L14.752 12.9749L14.7177 12.9858L14.6831 12.9967L14.6486 13.0077L14.6139 13.0185L14.5793 13.0294L14.5446 13.0403L14.5099 13.0511L14.475 13.0619L14.4403 13.0727L14.4054 13.0835L14.3704 13.0943L14.2655 13.1265L14.2304 13.1372L14.1953 13.1478L14.1248 13.1692L14.0896 13.1797L14.0543 13.1904L14.019 13.201L13.9835 13.2115L13.9481 13.2221L13.8771 13.2431L13.8415 13.2535L13.8059 13.2641L13.7347 13.2849L13.6632 13.3057L13.6413 13.3121L13.6273 13.3161L13.5916 13.3267L13.5558 13.3373L13.5199 13.3478L13.4841 13.3584L13.4482 13.3689L13.4121 13.3794L13.3761 13.3898L13.3401 13.4004L13.304 13.4107L13.2678 13.4212L13.1592 13.4523L13.0503 13.4831L13.0138 13.4935L12.9775 13.5036L12.9409 13.5139L12.9044 13.5241L12.7581 13.5647L12.6846 13.5848L12.6478 13.5949L12.611 13.6048L12.5005 13.6348L12.3523 13.6745L12.3167 13.6841L12.1702 13.7234L12.097 13.7428L12.0605 13.7525L11.9875 13.7716L11.9511 13.7811L11.9145 13.7907L11.8782 13.8001L11.8417 13.8095L11.8054 13.8188L11.769 13.8282L11.7327 13.8375L11.6964 13.8468L11.66 13.856L11.6238 13.8652L11.5875 13.8743L11.5151 13.8926L11.479 13.9016L11.4428 13.9106L11.4066 13.9195L11.2625 13.955L11.1546 13.9813L11.0469 14.0071L11.0111 14.0156L10.9753 14.0242L10.9395 14.0327L10.9083 14.04L10.9038 14.0412L10.8682 14.0498L10.8324 14.0582L10.7969 14.0668L10.7257 14.0836L10.6901 14.0919L10.6546 14.1003L10.6191 14.1086L10.5837 14.1168L10.5482 14.125L10.5128 14.1332L10.4421 14.1495L10.4068 14.1575L10.3716 14.1656L10.3363 14.1735L10.3011 14.1815L10.2659 14.1893L10.2307 14.1973L10.1956 14.205L10.1605 14.2129L10.0555 14.236L10.0206 14.2437L9.95069 14.2589L9.91586 14.2664L9.88099 14.2739L9.84626 14.2814L9.8115 14.2888L9.77672 14.2961L9.74206 14.3035L9.70738 14.3108L9.63822 14.3253L9.60361 14.3325L9.5346 14.3468L9.5002 14.3539L9.46578 14.3609L9.3628 14.3818L9.32856 14.3886L9.29434 14.3955L9.26006 14.4023L9.22592 14.4091L9.19185 14.4158L9.15781 14.4226L9.12374 14.4292L9.08975 14.4358L9.05579 14.4424L9.0218 14.449L8.98791 14.4555L8.9541 14.4619L8.92031 14.4684L8.8865 14.4748L8.85279 14.4811L8.81906 14.4874L8.78545 14.4937L8.75182 14.4999L8.7183 14.5061L8.68474 14.5122L8.65121 14.5184L8.58431 14.5306L8.55096 14.5366L8.45115 14.5543L8.38481 14.5661L8.35161 14.5719L8.31863 14.5776L8.28554 14.5833L8.25252 14.589L8.21961 14.5945L8.18672 14.6002L8.15389 14.6057L8.12108 14.6113L8.08824 14.6167L8.05551 14.6221L7.99026 14.6329L7.9576 14.6382L7.92505 14.6435L7.82771 14.6592L7.79533 14.6644L7.7308 14.6745L7.6985 14.6795L7.67711 14.6828L7.66634 14.6846L7.57016 14.6996L7.53817 14.7045L7.50632 14.7095L7.47444 14.7144L7.44253 14.7191L7.41076 14.724L7.37906 14.7287L7.34738 14.7335L7.31565 14.7381L7.28406 14.7428L7.25257 14.7474L7.22105 14.752L7.15821 14.761L7.12687 14.7654L7.09563 14.7698L7.06443 14.7742L7.03316 14.7785L7.00203 14.7828L6.971 14.7871L6.90889 14.7955L6.87804 14.7997L6.84706 14.8037L6.81629 14.8078L6.78554 14.8119L6.75477 14.8159L6.72407 14.8198L6.69351 14.8237L6.66291 14.8276L6.60194 14.8352L6.57152 14.8389L6.54114 14.8427L6.51083 14.8464L6.45042 14.8537L6.39016 14.8607L6.36014 14.8642L6.30029 14.8711L6.27045 14.8744L6.24063 14.8778L6.21089 14.8811L6.18125 14.8844L6.15159 14.8875L6.12206 14.8908L6.09249 14.8939L6.03358 14.9001L6.0042 14.9031L5.97495 14.9061L5.9166 14.912L5.8874 14.9148L5.85844 14.9176L5.82934 14.9204L5.80048 14.9233L5.77156 14.9259L5.71399 14.9313L5.68528 14.9339L5.62807 14.9389L5.59956 14.9415L5.57103 14.9439L5.54274 14.9463L5.51431 14.9487L5.45788 14.9534L5.42974 14.9556L5.40162 14.9579L5.37358 14.96L5.31772 14.9643L5.28986 14.9663L5.2621 14.9683L5.23448 14.9704L5.17918 14.9743L5.15171 14.9761L5.12427 14.978L5.0968 14.9797L5.04227 14.9832L5.01509 14.9848L4.98793 14.9865L4.96084 14.9881L4.90689 14.9912L4.88012 14.9927L4.85324 14.9942L4.79985 14.997L4.77326 14.9983L4.72029 15.0009L4.69388 15.0021L4.66757 15.0032L4.64129 15.0045L4.61509 15.0056L4.58896 15.0066L4.56296 15.0076L4.53694 15.0086L4.51102 15.0095L4.48523 15.0105L4.45939 15.0113L4.43378 15.0122L4.40807 15.0131L4.35701 15.0145L4.33169 15.0152L4.30626 15.0158L4.28104 15.0165L4.25579 15.017L4.23067 15.0176L4.21727 15.0179L4.20563 15.0181L4.18062 15.0187L4.15569 15.0191L4.13085 15.0195L4.0814 15.0203L4.05677 15.0207L4.03222 15.0209L4.00781 15.0212L3.98336 15.0214L3.95902 15.0216L3.93479 15.0217L3.91065 15.0218L3.88649 15.0219L3.86257 15.0219L3.81466 15.0218L3.76717 15.0217L3.74353 15.0215L3.71997 15.0213L3.69651 15.021L3.67307 15.0208L3.64972 15.0205L3.62643 15.0201L3.60328 15.0197L3.58024 15.0193L3.55717 15.0188L3.5342 15.0183L3.51146 15.0178L3.4886 15.0172L3.46591 15.0165L3.44325 15.0159L3.4208 15.0152L3.39833 15.0145L3.35358 15.0129L3.30925 15.0112L3.28718 15.0103L3.2652 15.0093L3.24334 15.0083L3.19979 15.0062L3.15665 15.004L3.13518 15.0028L3.11379 15.0015L3.09243 15.0003L3.07124 14.999L3.05009 14.9978L3.00814 14.995L2.98724 14.9934L2.96637 14.992L2.9457 14.9905L2.92512 14.9889L2.90456 14.9874L2.88407 14.9858L2.82325 14.9807L2.80318 14.979L2.78319 14.9771L2.76322 14.9753L2.74344 14.9734L2.72369 14.9715L2.704 14.9696L2.66506 14.9655L2.62632 14.9614L2.60716 14.9593L2.58808 14.9571L2.56902 14.955L2.55015 14.9527L2.5313 14.9505L2.51252 14.9482L2.47539 14.9434L2.45693 14.941L2.43858 14.9386L2.42032 14.9361L2.40204 14.9335L2.384 14.931L2.36605 14.9285L2.34819 14.9258L2.33035 14.9232L2.29504 14.9178L2.26014 14.9122L2.24282 14.9095L2.22568 14.9066L2.20851 14.9037L2.19148 14.9008L2.17455 14.8978L2.1411 14.8919L2.12446 14.8888L2.10794 14.8857L2.0915 14.8826L2.0752 14.8795L2.05897 14.8763L2.04287 14.8731L2.02684 14.8698L2.01095 14.8666L1.99514 14.8633L1.97942 14.8599L1.96382 14.8565L1.94834 14.8532L1.93294 14.8498L1.91765 14.8463L1.90245 14.8428L1.8875 14.8393L1.87251 14.8358L1.85763 14.8322L1.84286 14.8286L1.82818 14.825L1.81361 14.8213L1.79928 14.8177L1.78492 14.8139L1.77066 14.8102L1.75651 14.8064L1.74257 14.8026L1.72865 14.7988L1.70117 14.7911L1.68764 14.7871L1.67425 14.7832L1.66082 14.7793L1.64763 14.7753L1.63452 14.7713L1.62153 14.7673L1.60863 14.7632L1.59585 14.7591L1.58318 14.7551L1.57062 14.751L1.55815 14.7469L1.53364 14.7385L1.50955 14.73L1.49771 14.7258L1.486 14.7215L1.47437 14.7172L1.46287 14.7129L1.45147 14.7086L1.44018 14.7043L1.42899 14.7L1.40703 14.6911L1.39629 14.6868L1.38562 14.6823L1.37498 14.6779L1.36455 14.6735L1.35422 14.669L1.34412 14.6646L1.33363 14.6599L1.32895 14.6578L1.31907 14.6534L1.31423 14.6511L1.30929 14.6489L1.30445 14.6466L1.29971 14.6443L1.29487 14.642L1.2854 14.6374L1.2807 14.6352L1.27606 14.6329L1.27146 14.6307L1.26683 14.6284L1.26233 14.6261L1.2577 14.6238L1.2532 14.6216L1.2488 14.6193L1.24431 14.617L1.23991 14.6148L1.23549 14.6124L1.23119 14.6101L1.22683 14.6079L1.22254 14.6056L1.21835 14.6033L1.21406 14.601L1.2099 14.5988L1.20571 14.5964L1.20155 14.5942L1.19746 14.5918L1.19341 14.5896L1.18537 14.5849L1.18132 14.5827L1.17736 14.5804L1.17352 14.5781L1.16956 14.5758L1.16572 14.5735L1.1619 14.5713L1.15815 14.569L1.15443 14.5667L1.15069 14.5644L1.14697 14.5622L1.14323 14.5598L1.13239 14.553L1.12187 14.5462L1.11849 14.544L1.11633 14.5425L1.11498 14.5417L1.10823 14.5372L1.10493 14.5349L1.10155 14.5327L1.095 14.5282L1.09186 14.526L1.08552 14.5215L1.08238 14.5193L1.07921 14.5171L1.07314 14.5127L1.0702 14.5105L1.06717 14.5083L1.0613 14.5038L1.05839 14.5017L1.05556 14.4995L1.05276 14.4973L1.04993 14.4951L1.04713 14.4929L1.03904 14.4864L1.03637 14.4843L1.03118 14.4799L1.02605 14.4757L1.02358 14.4736L1.02102 14.4715L1.01856 14.4694L1.0162 14.4673L1.01374 14.4651L1.01141 14.4631L1.00905 14.4609L1.00672 14.4589L1.00449 14.4568L1.00216 14.4548L0.999933 14.4527L0.99781 14.4506L0.995583 14.4485L0.993489 14.4465L0.991262 14.4444L0.989167 14.4424L0.987176 14.4404L0.985081 14.4384L0.981099 14.4343L0.979136 14.4324L0.977145 14.4304L0.975286 14.4284L0.973399 14.4264L0.967821 14.4205L0.966094 14.4187L0.962583 14.4147L0.959128 14.4109L0.957504 14.409L0.955777 14.4072L0.95253 14.4034L0.95101 14.4014L0.949414 14.3996L0.947894 14.3977L0.943419 14.3922L0.942031 14.3904L0.940539 14.3885L0.939151 14.3867L0.937791 14.3849L0.936403 14.3831L0.933683 14.3796L0.927401 14.3707L0.926173 14.369L0.925021 14.3672L0.923792 14.3655L0.922668 14.3638L0.921515 14.362L0.918142 14.3569L0.917149 14.3553L0.916025 14.3536L0.915004 14.3518L0.914011 14.3502L0.912991 14.3485L0.911998 14.3468L0.910977 14.3451L0.910088 14.3435L0.909096 14.3418L0.903763 14.3319L0.902902 14.3304L0.902116 14.3287L0.901228 14.327L0.900471 14.3254L0.899686 14.3238L0.898929 14.3222L0.898144 14.3205L0.897386 14.3189L0.896601 14.3172L0.895844 14.3156L0.895191 14.314L0.894406 14.3124L0.893753 14.3108L0.892996 14.3092L0.892343 14.3076L0.891662 14.3059L0.890355 14.3026L0.889806 14.301L0.889125 14.2993L0.888471 14.2977L0.887373 14.2944L0.886692 14.2927L0.885593 14.2894L0.885127 14.2881L0.884272 14.2853L0.882783 14.2806L0.882143 14.2782L0.881399 14.2759L0.876833 14.2588L0.876373 14.2563L0.875809 14.2538L0.874427 14.2461L0.874071 14.2435L0.873583 14.2409L0.873226 14.2383L0.872842 14.2356L0.872562 14.2329L0.872178 14.2302L0.871897 14.2275L0.871589 14.2247L0.871384 14.2219L0.871104 14.2192L0.870872 14.2162L0.870668 14.2134L0.870567 14.2105L0.870182 14.2016L0.87013 14.1985L0.870106 14.1955L0.870054 14.1924L0.870105 14.1893L0.870129 14.186L0.870181 14.1829L0.870309 14.1796L0.870408 14.1763L0.870536 14.173L0.870636 14.1696L0.87084 14.1662L0.871455 14.1594L0.872015 14.1523L0.872371 14.1487L0.872755 14.1451L0.873674 14.1377L0.874106 14.1339L0.874642 14.1301L0.875282 14.1263L0.875818 14.1225L0.87643 14.1185L0.878577 14.1066L0.879369 14.1025L0.880265 14.0983L0.881057 14.0942L0.882029 14.09L0.882896 14.0857L0.883868 14.0814L0.884944 14.0771L0.885992 14.0727L0.888296 14.0639L0.889419 14.0594L0.890675 14.0549L0.892007 14.0503L0.893311 14.0456L0.894746 14.041L0.897562 14.0316L0.899046 14.0267L0.900662 14.0219L0.902249 14.0171L0.905633 14.0072L0.907296 14.0022L0.909168 13.9972L0.910936 13.9921L0.912911 13.987L0.914755 13.9819L0.916834 13.9767L0.918782 13.9715L0.92091 13.9662L0.923065 13.9609L0.925193 13.9556L0.927425 13.9502L0.932095 13.9393L0.934507 13.9338L0.936946 13.9284L0.941977 13.9172L0.944569 13.9115L0.947188 13.9059L0.949883 13.9002L0.955482 13.8886L0.961288 13.8771L0.967246 13.8652L0.97033 13.8593L0.976703 13.8473L0.979863 13.8412L0.983258 13.8352L0.98652 13.8291L1.00048 13.8043L1.00416 13.7981L1.00781 13.7918L1.01156 13.7854L1.01535 13.7792L1.01918 13.7727L1.02304 13.7663L1.027 13.7599L1.03106 13.7535L1.0351 13.7469L1.04339 13.7338L1.04766 13.7273L1.05188 13.7206L1.05623 13.714L1.06514 13.7007L1.06957 13.6939L1.07423 13.6872L1.07876 13.6805L1.09297 13.6599L1.09781 13.6531L1.10771 13.6393L1.11276 13.6324L1.11778 13.6253L1.12293 13.6184L1.12806 13.6113L1.13331 13.6044L1.14931 13.583L1.15486 13.5759L1.16029 13.5687L1.16594 13.5615L1.17148 13.5544L1.18873 13.5327L1.19455 13.5254L1.20051 13.5181L1.20644 13.5107L1.2125 13.5034L1.21853 13.496L1.2247 13.4887L1.23083 13.4812L1.23708 13.4738L1.24334 13.4664L1.25603 13.4514L1.26248 13.4439L1.27559 13.4288L1.29556 13.4061L1.30242 13.3985L1.30918 13.3909L1.31615 13.3832L1.32301 13.3756L1.33008 13.3679L1.33713 13.3601L1.3442 13.3524L1.35855 13.337L1.3658 13.3292L1.38057 13.3136L1.38793 13.3057L1.39542 13.2979L1.40301 13.2901L1.41057 13.2822L1.41827 13.2743L1.42593 13.2664L1.43363 13.2585L1.44143 13.2507L1.4493 13.2426L1.45721 13.2347L1.46519 13.2267L1.47319 13.2188L1.48128 13.2107L1.48939 13.2027L1.49757 13.1946L1.50579 13.1866L1.51411 13.1786L1.5224 13.1705L1.53082 13.1624L1.53922 13.1543L1.54764 13.1462L1.55624 13.138L1.56477 13.13L1.57347 13.1217L1.5821 13.1136L1.59094 13.1055L1.59965 13.0972L1.60859 13.089L1.6174 13.0808L1.62634 13.0726L1.63539 13.0644L1.64441 13.0561L1.66271 13.0396L1.67193 13.0312L1.69044 13.0147L1.6999 13.0063L1.70923 12.9979L1.71869 12.9896L1.74739 12.9646L1.75706 12.9562L1.77661 12.9394L1.78635 12.9308L1.80611 12.914L1.81612 12.9056L1.8261 12.8971L1.83618 12.8886L1.84637 12.8801L1.85646 12.8716L1.86665 12.8631L1.87694 12.8546L1.88726 12.8461L1.91845 12.8204L1.92898 12.8119L1.93958 12.8033L1.95021 12.7947L1.96082 12.7861L1.97156 12.7775L1.98226 12.7689L1.9931 12.7603L2.00392 12.7516L2.0258 12.7344L2.03672 12.7257L2.04777 12.717L2.08122 12.691L2.10374 12.6736L2.12645 12.6562L2.16085 12.6299L2.17241 12.6212L2.18408 12.6124L2.19568 12.6037L2.20745 12.5948L2.21915 12.5861L2.23103 12.5773L2.24281 12.5684L2.25471 12.5597L2.26673 12.5509L2.27871 12.542L2.29072 12.5332L2.30283 12.5244L2.31492 12.5155L2.35158 12.489L2.37622 12.4712L2.40108 12.4534L2.41363 12.4446L2.42616 12.4357L2.4388 12.4267L2.45133 12.4178L2.46409 12.4089L2.47683 12.3999L2.4896 12.3911L2.50234 12.3821L2.51521 12.3732L2.52818 12.3643L2.54113 12.3552L2.5541 12.3463L2.59333 12.3194L2.60651 12.3104L2.6198 12.3014L2.63298 12.2924L2.64627 12.2834L2.65968 12.2744L2.67307 12.2654L2.68657 12.2563L2.69998 12.2474L2.71358 12.2383L2.7271 12.2293L2.7407 12.2202L2.79562 12.1841L2.80952 12.1749L2.82336 12.1659L2.83732 12.1569L2.85126 12.1478L2.89338 12.1205L2.90755 12.1115L2.9217 12.1024L2.93597 12.0933L2.95022 12.0841L2.97898 12.066L2.99333 12.0568L3.00771 12.0477L3.0222 12.0386L3.08055 12.002L3.09527 11.9929L3.11006 11.9837L3.12476 11.9746L3.13968 11.9654L3.15448 11.9562L3.18433 11.938L3.19934 11.9287L3.21429 11.9197L3.24454 11.9013L3.27491 11.8829L3.30542 11.8646L3.3361 11.8461L3.36692 11.8277L3.39797 11.8094L3.4291 11.7909L3.46047 11.7725L3.49194 11.754L3.52364 11.7356L3.55545 11.7172L3.58747 11.6987L3.61959 11.6802L3.65184 11.6617L3.6843 11.6432L3.71686 11.6247L3.74966 11.6062L3.78257 11.5877L3.81568 11.5692L3.84892 11.5507L3.88237 11.5321L3.91593 11.5136L3.94961 11.4951L3.98348 11.4764L4.0175 11.458L4.05161 11.4394L4.05717 11.4364L4.08594 11.4208L4.12036 11.4021L4.1549 11.3835L4.18968 11.3649L4.22454 11.3462L4.25963 11.3276L4.29483 11.3089L4.33016 11.2903L4.36559 11.2717L4.40123 11.253L4.437 11.2344L4.47298 11.2158L4.50909 11.1972L4.54528 11.1785L4.5816 11.1598L4.61815 11.1412L4.65481 11.1226L4.69157 11.104L4.72854 11.0853L4.76565 11.0666L4.80288 11.0481L4.84019 11.0294L4.87773 11.0108L4.91541 10.9922L4.95316 10.9735L4.99108 10.955L5.02917 10.9363L5.06739 10.9177L5.10572 10.8991L5.14418 10.8806L5.18275 10.862L5.22152 10.8434L5.26042 10.8248L5.29943 10.8062ZM16.4482 8.80248C15.012 9.37603 13.3871 9.91219 11.7027 10.3635C10.07 10.801 8.37614 11.1506 6.83354 11.3763C6.39942 8.7732 7.93448 6.24341 10.431 5.57446C12.9282 4.90534 15.5233 6.32972 16.4482 8.80248Z" fill="white"/>
</svg>
